<?xml version="1.0" encoding="UTF-8"?>
<svg id="Layer_2" data-name="Layer 2" xmlns="http://www.w3.org/2000/svg" viewBox="0 0 362.55 73.1">
  <defs>
    <style>
      .cls-1 {
        fill: #f2748c;
      }

      .cls-2 {
        fill: #fff;
      }

      .cls-3 {
        fill: #fdba14;
      }

      .cls-4 {
        fill: #88479b;
      }
    </style>
  </defs>
  <g id="Layer_1-2" data-name="Layer 1">
    <g>
      <g>
        <path class="cls-4" d="m8.26,19.79c3.88-5.31,8.68-9.45,14.41-12.41,5.73-2.96,11.92-4.45,18.57-4.45,8.14,0,14.74,2.15,19.79,6.45,5.05,4.3,7.9,10.16,8.55,17.59h-18.37c-.85-2.8-2.39-4.94-4.64-6.4s-5-2.2-8.26-2.2c-5.15,0-9.61,1.78-13.39,5.33-3.78,3.55-6.19,8.29-7.23,14.22-.33,1.82-.49,3.42-.49,4.79,0,4.56,1.27,8.18,3.81,10.85,2.54,2.67,6.02,4.01,10.46,4.01,3.19,0,6.17-.75,8.94-2.25,2.77-1.5,5.1-3.65,6.99-6.45h18.37c-3.26,7.43-8.18,13.28-14.76,17.54-6.58,4.27-13.94,6.4-22.09,6.4-5.86,0-10.98-1.14-15.34-3.42-4.37-2.28-7.72-5.5-10.07-9.67-2.35-4.17-3.52-9.02-3.52-14.56,0-2.48.23-4.89.68-7.23,1.17-6.78,3.7-12.82,7.57-18.13Z"/>
        <path class="cls-4" d="m182.45,17.79l-9.58,54.53h-16.71l1.27-7.43c-2.15,2.41-4.77,4.35-7.87,5.81-3.09,1.47-6.4,2.2-9.92,2.2-5.47,0-9.77-1.55-12.9-4.64-3.13-3.09-4.69-7.41-4.69-12.95,0-2.08.16-3.97.49-5.67l5.67-31.86h16.61l-5.18,29.61c-.2,1.04-.29,2.05-.29,3.03,0,2.74.76,4.84,2.3,6.3,1.53,1.47,3.66,2.2,6.4,2.2,3.13,0,5.78-.93,7.96-2.79,2.18-1.86,3.63-4.51,4.35-7.96l5.38-30.39h16.71Z"/>
        <path class="cls-4" d="m218.41,19.35c3.19-1.56,6.68-2.34,10.46-2.34,5.86,0,10.6,1.91,14.22,5.72,3.62,3.81,5.42,9.01,5.42,15.59,0,2.09-.2,4.3-.59,6.65-.98,5.6-2.9,10.54-5.77,14.8-2.87,4.27-6.32,7.56-10.36,9.87-4.04,2.31-8.31,3.47-12.8,3.47-3.84,0-7.07-.77-9.67-2.3-2.61-1.53-4.5-3.57-5.67-6.11l-1.37,7.62h-16.71L198.38,0h16.71l-4.59,25.51c2.08-2.54,4.72-4.59,7.92-6.16Zm12.9,22.57c0-3.26-.93-5.8-2.79-7.62-1.86-1.82-4.22-2.74-7.08-2.74-3.32,0-6.35,1.21-9.09,3.62s-4.5,5.7-5.28,9.87c-.2,1.17-.29,2.25-.29,3.22,0,3.19.91,5.7,2.74,7.52,1.82,1.83,4.17,2.74,7.04,2.74,3.32,0,6.37-1.22,9.14-3.66,2.77-2.44,4.54-5.75,5.33-9.92.2-1.11.29-2.12.29-3.03Z"/>
        <path class="cls-4" d="m303.38,22.72c4.14,3.81,6.21,9.01,6.21,15.59,0,2.15-.16,4.07-.49,5.77-.26,1.5-.65,3.09-1.17,4.79h-37.82c-.07.39-.1,1.01-.1,1.86,0,2.87.78,5.05,2.35,6.55,1.56,1.5,3.65,2.25,6.25,2.25,4.17,0,7.36-1.76,9.58-5.28h17.79c-2.35,5.54-6.16,10.07-11.43,13.58s-11.21,5.28-17.79,5.28c-7.04,0-12.66-1.96-16.86-5.86-4.2-3.91-6.3-9.22-6.3-15.93,0-2.02.2-4.1.59-6.25.98-5.67,3-10.62,6.06-14.85,3.06-4.23,6.87-7.49,11.43-9.77,4.56-2.28,9.54-3.42,14.95-3.42,7.04,0,12.62,1.91,16.76,5.72Zm-10.5,15.78c0-2.61-.82-4.61-2.44-6.01-1.63-1.4-3.78-2.1-6.45-2.1-2.87,0-5.39.86-7.57,2.59-2.18,1.73-3.76,4.19-4.74,7.38h21.01c.13-.91.2-1.53.2-1.86Z"/>
        <path class="cls-4" d="m324.59,71.05c-3.42-1.37-6.11-3.27-8.06-5.72s-2.93-5.26-2.93-8.45c0-.46.06-1.27.2-2.44h16.12c-.13,2.02.47,3.63,1.81,4.84,1.33,1.21,3.24,1.81,5.72,1.81,2.08,0,3.81-.39,5.18-1.17,1.37-.78,2.05-1.89,2.05-3.32s-.73-2.46-2.2-3.27c-1.47-.81-3.89-1.81-7.28-2.98-3.52-1.17-6.47-2.33-8.84-3.47-2.38-1.14-4.41-2.79-6.11-4.94-1.7-2.15-2.54-4.85-2.54-8.11s.94-6.07,2.83-8.65c1.89-2.57,4.54-4.58,7.96-6.01,3.42-1.43,7.38-2.15,11.87-2.15s8.4.73,11.73,2.2c3.32,1.47,5.9,3.5,7.72,6.11,1.82,2.61,2.74,5.54,2.74,8.8l-.1,1.47h-15.15c.13-1.96-.46-3.52-1.76-4.69-1.3-1.17-3.16-1.76-5.57-1.76-1.89,0-3.44.39-4.64,1.17-1.21.78-1.81,1.86-1.81,3.22s.8,2.62,2.39,3.57c1.6.95,4.09,2,7.48,3.18,3.52,1.17,6.43,2.33,8.75,3.47,2.31,1.14,4.3,2.74,5.96,4.79,1.66,2.05,2.49,4.61,2.49,7.67,0,3.52-1.06,6.55-3.18,9.09-2.12,2.54-5.02,4.48-8.7,5.81-3.68,1.33-7.87,2-12.56,2-4.3,0-8.16-.68-11.58-2.05Z"/>
      </g>
      <g>
        <path class="cls-1" d="m120.92,45.33c0,14.13-10.86,25.72-24.68,26.89-.76.07-1.53.1-2.31.1-14.9,0-26.98-12.08-26.98-26.99,0-.28,0-.56.02-.84.24-7.93,3.91-15.01,9.57-19.78,4.7-3.97,10.77-6.36,17.4-6.36,11.35,0,21.05,7,25.05,16.91,1.25,3.11,1.94,6.51,1.94,10.07Z"/>
        <path class="cls-4" d="m118.98,35.26c-.3,9.82-5.85,18.31-13.93,22.78-3.86,2.14-8.31,3.36-13.04,3.36-11.34,0-21.05-6.99-25.04-16.9.24-7.93,3.91-15.01,9.57-19.78,4.7-3.97,10.77-6.36,17.4-6.36,11.35,0,21.05,7,25.05,16.91Z"/>
        <path class="cls-3" d="m105.82,51.59c0,2.22-.27,4.38-.78,6.44-1.38,5.63-4.52,10.56-8.81,14.18-.76.07-1.53.1-2.31.1-14.9,0-26.98-12.08-26.98-26.99,0-.28,0-.56.02-.84.24-7.93,3.91-15.01,9.57-19.78.76-.07,1.52-.1,2.3-.1,14.91,0,26.99,12.08,26.99,26.99Z"/>
        <ellipse class="cls-2" cx="90.03" cy="57.08" rx="11.17" ry="14.91" transform="translate(-13.59 32.03) rotate(-18.78)"/>
      </g>
    </g>
  </g>
</svg>