<?xml version="1.0" encoding="UTF-8"?>
<svg id="Layer_2" data-name="Layer 2" xmlns="http://www.w3.org/2000/svg" viewBox="0 0 53.97 53.97">
  <defs>
    <style>
      .cls-1 {
        fill: #f2748c;
      }

      .cls-2 {
        fill: #fff;
      }

      .cls-3 {
        fill: #fdba14;
      }

      .cls-4 {
        fill: #88479b;
      }
    </style>
  </defs>
  <g id="Layer_1-2" data-name="Layer 1">
    <g>
      <path class="cls-1" d="m53.97,26.98c0,14.13-10.86,25.72-24.68,26.89-.76.07-1.53.1-2.31.1C12.08,53.97,0,41.89,0,26.98c0-.28,0-.56.02-.84.24-7.93,3.91-15.01,9.57-19.78C14.28,2.39,20.36,0,26.98,0c11.35,0,21.05,7,25.05,16.91,1.25,3.11,1.94,6.51,1.94,10.07Z"/>
      <path class="cls-4" d="m52.03,16.91c-.3,9.82-5.85,18.31-13.93,22.78-3.86,2.14-8.31,3.36-13.04,3.36C13.72,43.05,4.01,36.06.02,26.15c.24-7.93,3.91-15.01,9.57-19.78C14.28,2.39,20.36,0,26.98,0c11.35,0,21.05,7,25.05,16.91Z"/>
      <path class="cls-3" d="m38.87,33.25c0,2.22-.27,4.38-.78,6.44-1.38,5.63-4.52,10.56-8.81,14.18-.76.07-1.53.1-2.31.1C12.08,53.97,0,41.89,0,26.98c0-.28,0-.56.02-.84.24-7.93,3.91-15.01,9.57-19.78.76-.07,1.52-.1,2.3-.1,14.91,0,26.99,12.08,26.99,26.99Z"/>
      <ellipse class="cls-2" cx="23.08" cy="38.74" rx="11.17" ry="14.91" transform="translate(-11.24 9.49) rotate(-18.78)"/>
    </g>
  </g>
</svg>